<svg t="1714203924567" class="icon" viewBox="0 0 1024 1024" version="1.1" xmlns="http://www.w3.org/2000/svg" p-id="6522"
    width="200" height="200">
    <path
        d="M519.589781 0.085331a512.072318 512.072318 0 0 0-369.569274 149.969522 512.072318 512.072318 0 0 0 0 724.034931 512.072318 512.072318 0 0 0 724.034931 0 512.072318 512.072318 0 0 0 0-724.034931A512.072318 512.072318 0 0 0 519.632446 0.085331zM331.519894 255.780166c23.978057 5.461195 44.798861 9.258431 70.952863 9.258431 39.295001 0 79.48598-9.258431 118.866313-9.258431 76.371392 0 147.196259 34.729784 147.196258 119.46363 0 65.704997-39.295001 107.389271-100.264118 125.010156l118.951643 175.227546h55.507923v43.092238h-84.733847l-140.497762-210.511983h-74.963428v167.419745h73.29947v43.092238H331.519894v-43.092238h63.273059V304.376264L331.519894 296.568462v-40.830962z m190.54449 43.177569c-25.428687 0-51.753351 2.261276-79.528645 5.418529v162.043881l40.148313 0.853312c98.045508 1.45063 135.804548-36.265745 135.804548-86.44047 0-58.707841-42.537586-81.875252-96.424216-81.875252z"
        p-id="6523"></path>
</svg>